<?xml version="1.0" encoding="utf-8"?>
<svg xmlns="http://www.w3.org/2000/svg" xmlns:xlink="http://www.w3.org/1999/xlink" version="1.1" id="Layer_1" x="0px" y="0px" viewBox="0 0 229.816 102" style="enable-background:new 0 0 229.816 102;">

<style type="text/css">
	.st0{fill:#00C7B1;}
</style>
<g>
	<path class="st0" d="M161.1902,24.4349C151.5066,10.361,134.3753,0.9911,114.8966,1&#xA;		c-19.4591,0.0089-36.5665,9.3759-46.2425,23.4349H0.9999l2.2997,4.691h223.2169l2.2997-4.691H161.1902z M114.9194,5.7043&#xA;		c16.6009,0,31.3286,7.3909,40.4128,18.7306H74.5067C83.5909,13.0953,98.3186,5.7043,114.9194,5.7043z"/>
	<path class="st0" d="M27.5703,79.8265h42.7341C80.214,92.6325,96.5275,101.0084,114.9422,101&#xA;		c18.3953-0.0084,34.6866-8.3813,44.5875-21.1734h42.716l2.2997-4.691H25.2706L27.5703,79.8265z M114.9194,96.2935&#xA;		c-15.4694,0-29.3136-6.4172-38.4799-16.467h76.9595C144.2327,89.8762,130.3887,96.2935,114.9194,96.2935z"/>
	<rect x="70.4744" y="37.6257" class="st0" width="6.3638" height="28.7832"/>
	<rect x="114.31" y="37.6257" class="st0" width="6.3638" height="28.7832"/>
	<polygon class="st0" points="89.5188,66.4089 95.7635,57.368 102.0082,66.4089 109.3998,66.4089 99.4593,52.0173 109.3998,37.6257 &#xA;		102.0082,37.6257 95.7635,46.6666 89.5188,37.6257 82.1273,37.6257 92.0677,52.0173 82.1273,66.4089"/>
	<polygon class="st0" points="65.2069,43.4385 65.2069,37.6257 49.6868,37.6257 45.7585,37.6257 43.3229,37.6257 43.3229,66.4089 &#xA;		49.6868,66.4089 49.6868,55.2678 63.4068,55.2678 63.4068,49.455 49.6868,49.455 49.6868,43.4385"/>
	<path class="st0" d="M186.4931,52.0096c0-8.2247-6.8691-14.892-15.3425-14.892c-8.4734,0-15.3425,6.6674-15.3425,14.892&#xA;		s6.8691,14.8921,15.3425,14.8921C179.624,66.9016,186.4931,60.2342,186.4931,52.0096z M162.3958,52.0096&#xA;		c0-4.9259,3.5805-8.9335,8.7548-8.9335s8.5574,4.0075,8.5574,8.9335s-3.3831,8.9335-8.5574,8.9335&#xA;		S162.3958,56.9355,162.3958,52.0096z"/>
	<path class="st0" d="M141.713,43.0761c2.9204,0,5.2692,1.2774,6.7622,3.2751l4.4267-4.5257&#xA;		c-2.7991-2.8961-6.7749-4.708-11.1889-4.708c-8.4734,0-15.3425,6.6674-15.3425,14.892s6.869,14.8921,15.3425,14.8921&#xA;		c4.5774,0,8.6839-1.948,11.4949-5.0338l-4.4771-4.5773c-1.4722,2.2099-3.9201,3.6525-7.0179,3.6525&#xA;		c-5.1743,0-8.7548-4.0075-8.7548-8.9335S136.5387,43.0761,141.713,43.0761z"/>
</g>
</svg>